<?xml version="1.0" standalone="no"?><!DOCTYPE svg PUBLIC "-//W3C//DTD SVG 1.1//EN" "http://www.w3.org/Graphics/SVG/1.1/DTD/svg11.dtd"><svg t="1543108691100" class="icon" style="" viewBox="0 0 1024 1024" version="1.1" xmlns="http://www.w3.org/2000/svg" p-id="3301" xmlns:xlink="http://www.w3.org/1999/xlink" width="48" height="48"><defs><style type="text/css"></style></defs><path d="M981.41971 278.265456a452.309486 452.309486 0 0 0-108.897342-144.590027A514.598419 514.598419 0 0 0 710.865693 35.693811a569.177039 569.177039 0 0 0-396.777906 0 517.024135 517.024135 0 0 0-162.176471 97.548455A454.215406 454.215406 0 0 0 42.407545 278.265456 409.426284 409.426284 0 0 0 2.209958 454.996226a432.643856 432.643856 0 0 0 192.238029 360.392159v208.611615L391.190918 897.776112a602.53064 602.53064 0 0 0 118.340309 11.868684c282.336068 0 511.999437-203.933447 511.999437-454.735202a411.332204 411.332204 0 0 0-40.110954-176.644138z m-295.850774 534.523947a493.806563 493.806563 0 0 1-173.265461 30.667987 561.120195 561.120195 0 0 1-135.14706-16.720117l-2.165818-0.606429-120.072964 74.850679V782.987744c0-6.757353-7.103884-11.348888-15.333994-16.633484l-3.985105-2.51235C126.874457 691.15705 64.585524 578.621133 64.585524 454.996226c0-214.15611 200.034975-388.374531 445.898663-388.37453s445.552133 174.218421 445.552133 388.37453a346.530922 346.530922 0 0 1-34.653092 151.00085 388.287898 388.287898 0 0 1-95.296004 123.451641 448.237747 448.237747 0 0 1-140.864819 83.340686z" p-id="3302" fill="#8a8a8a"></path><path d="M741.88021 307.980483H292.776136a33.873398 33.873398 0 0 0 0 67.746795h449.104074a33.873398 33.873398 0 0 0 0-67.746795zM676.992295 506.19617H332.973723a29.19523 29.19523 0 0 0-29.19523 29.19523v7.710313a29.455128 29.455128 0 0 0 29.19523 29.715027h344.018572a29.541761 29.541761 0 0 0 29.368496-29.715027v-7.710313a29.281863 29.281863 0 0 0-29.368496-29.19523z" p-id="3303" fill="#8a8a8a"></path></svg>