<?xml version="1.0" standalone="no"?><!DOCTYPE svg PUBLIC "-//W3C//DTD SVG 1.1//EN" "http://www.w3.org/Graphics/SVG/1.1/DTD/svg11.dtd"><svg t="1543108478060" class="icon" style="" viewBox="0 0 1389 1024" version="1.1" xmlns="http://www.w3.org/2000/svg" p-id="2063" xmlns:xlink="http://www.w3.org/1999/xlink" width="65.109375" height="48"><defs><style type="text/css"></style></defs><path d="M786.964556 653.997648c-8.428691 0-16.341341-2.236183-23.909962-6.364522l-115.421468-63.301193c-2.752226-1.548127-6.020494-1.548127-8.772719 0l-115.421469 63.301193c-7.568621 4.128339-15.825298 6.364522-23.909961 6.364522-14.793214 0-28.726356-6.536536-38.531161-18.233495-10.148833-11.69696-14.105157-27.350244-11.696959-43.175542l22.017806-134.343021c0.688056-3.78431-0.688056-7.912649-3.096254-10.664874l-93.575676-94.607761c-13.933143-14.105157-18.577524-34.918864-12.213002-54.184445 6.364522-18.577524 21.673778-31.82261 40.59533-34.918864l129.010583-19.609609c3.096254-0.688056 6.020494-2.752226 7.568621-6.020494l57.968755-121.958004c8.428691-18.233496 26.146145-29.586427 46.099782-29.586427 19.781623 0 37.155048 11.352931 46.099781 29.586427l57.624727 121.958004c1.548127 3.096254 4.472367 5.332437 7.568621 6.020494l129.010583 19.609609c18.921552 2.752226 34.74685 16.341341 40.59533 34.918864 6.364522 19.26558 1.548127 40.079288-12.213002 54.184445L818.787166 448.096758c-2.580212 2.580212-3.78431 6.536536-3.096254 10.664875l22.017806 134.34302c2.580212 15.48127-1.548127 31.134554-11.696959 43.175542-9.976818 11.180917-24.25399 17.717453-39.047203 17.717453z m-143.803797-111.637157c8.428691 0 16.685369 2.236183 23.909962 6.364522l115.421468 63.301192c1.548127 0.860071 2.752226 1.204099 4.472367 1.204099 2.580212 0 5.332437-1.204099 7.224592-3.78431 1.548127-1.892155 3.440282-4.988409 2.580212-9.804805l-22.017806-134.34302c-2.752226-16.685369 2.580212-34.058794 14.449185-46.099782l93.575676-95.295817c4.644381-4.644381 3.096254-10.664875 2.752226-12.55703-0.688056-1.892155-2.752226-6.536536-8.256677-7.224593l-129.010583-19.609608c-16.685369-2.580212-31.134554-13.245087-38.531161-29.070385l-57.624727-122.302032c-2.580212-5.332437-6.536536-6.020494-8.77272-6.020494-2.236183 0-6.364522 0.860071-8.772719 6.020494l-57.968755 121.958004c-7.224593 15.825298-21.673778 26.490173-38.531161 29.070385l-129.010583 19.609608c-5.332437 0.860071-7.568621 5.332437-8.256677 7.224593-0.688056 1.548127-2.236183 7.912649 2.752225 12.55703l93.403662 95.295817c11.69696 12.040988 17.029397 29.070385 14.449186 46.099782l-22.017807 134.34302c-0.860071 4.644381 0.860071 8.256677 2.580212 10.148833 1.892155 2.236183 4.644381 3.78431 7.224593 3.78431 1.548127 0 2.752226-0.344028 4.472367-1.204099L619.250798 548.725013c7.224593-4.128339 15.653284-6.364522 23.909961-6.364522z" p-id="2064" fill="#f4ea2a"></path></svg>